<?xml version="1.0" encoding="UTF-8"?>
<svg xmlns="http://www.w3.org/2000/svg" xmlns:xlink="http://www.w3.org/1999/xlink" width="48pt" height="48pt" viewBox="0 0 48 48" version="1.1">
<g id="surface17845223">
<path style=" stroke:none;fill-rule:nonzero;fill:rgb(100%,56.078431%,0%);fill-opacity:1;" d="M 43.5 43.628906 L 4.5 43.628906 C 2.289062 43.628906 0.601562 41.941406 0.601562 39.730469 L 0.601562 4.5 C 0.601562 2.289062 2.289062 0.601562 4.5 0.601562 L 43.5 0.601562 C 45.710938 0.601562 47.398438 2.289062 47.398438 4.5 L 47.398438 39.730469 C 47.398438 41.808594 45.710938 43.628906 43.5 43.628906 Z M 43.5 43.628906 "/>
<path style=" stroke:none;fill-rule:nonzero;fill:rgb(86.666667%,17.254902%,0%);fill-opacity:1;" d="M 43.5 47.398438 L 4.5 47.398438 C 2.289062 47.398438 0.601562 45.710938 0.601562 43.5 L 0.601562 11 C 0.601562 8.789062 2.289062 7.101562 4.5 7.101562 L 43.5 7.101562 C 45.710938 7.101562 47.398438 8.789062 47.398438 11 L 47.398438 43.5 C 47.398438 45.710938 45.710938 47.398438 43.5 47.398438 Z M 43.5 47.398438 "/>
<path style=" stroke:none;fill-rule:nonzero;fill:rgb(71.764706%,10.980392%,10.980392%);fill-opacity:1;" d="M 12.300781 12.300781 C 10.863281 12.300781 9.699219 13.464844 9.699219 14.898438 C 9.699219 16.335938 10.863281 17.5 12.300781 17.5 C 13.734375 17.5 14.898438 16.335938 14.898438 14.898438 C 14.898438 13.464844 13.734375 12.300781 12.300781 12.300781 Z M 35.699219 12.300781 C 34.265625 12.300781 33.101562 13.464844 33.101562 14.898438 C 33.101562 16.335938 34.265625 17.5 35.699219 17.5 C 37.136719 17.5 38.300781 16.335938 38.300781 14.898438 C 38.300781 13.464844 37.136719 12.300781 35.699219 12.300781 Z M 35.699219 12.300781 "/>
<path style=" stroke:none;fill-rule:nonzero;fill:rgb(100%,100%,100%);fill-opacity:1;" d="M 24 27.898438 C 16.851562 27.898438 11 22.050781 11 14.898438 C 11 14.121094 11.519531 13.601562 12.300781 13.601562 C 13.078125 13.601562 13.601562 14.121094 13.601562 14.898438 C 13.601562 20.621094 18.28125 25.300781 24 25.300781 C 29.71875 25.300781 34.398438 20.621094 34.398438 14.898438 C 34.398438 14.121094 34.921875 13.601562 35.699219 13.601562 C 36.480469 13.601562 37 14.121094 37 14.898438 C 37 22.050781 31.148438 27.898438 24 27.898438 Z M 24 27.898438 "/>
</g>
</svg>
